<svg width="30" height="30" viewBox="0 0 30 30" fill="none" xmlns="http://www.w3.org/2000/svg">
<g clip-path="url(#clip0)">
<path d="M25.3632 4.26304C19.478 -1.42101 10.1478 -1.42101 4.26259 4.26304C-1.5642 10.296 -1.39709 19.9101 4.63585 25.7369C10.521 31.421 19.8513 31.421 25.7364 25.7369C31.5632 19.704 31.3961 10.0898 25.3632 4.26304ZM25.0227 25.0231C19.4848 30.556 10.7827 30.556 5.24988 25.0181C-0.282968 19.4802 -0.565564 10.5056 4.97232 4.97278C11.2499 -0.375 19.4898 -0.287828 25.0227 5.25C27.6803 7.91003 28.8773 11.2398 28.8749 15C28.8751 18.7593 27.6808 22.3648 25.0227 25.0231Z" fill="white"/>
<path d="M23.5299 19.3231L20.6849 16.4882C20.0393 15.841 18.9912 15.8398 18.344 16.4855C18.343 16.4864 18.3421 16.4873 18.3412 16.4882L16.7112 18.1182C16.5878 18.2419 16.3935 18.259 16.2505 18.1588C15.3584 17.5353 14.5232 16.8339 13.7549 16.063C13.0667 15.3764 12.4337 14.6368 11.8616 13.8508C11.7579 13.7096 11.773 13.5139 11.897 13.3902L13.5675 11.7196C14.2125 11.0734 14.2125 10.0271 13.5675 9.38091L10.7226 6.53598C10.067 5.90923 9.03439 5.90923 8.37882 6.53598L7.47777 7.43703C6.11697 8.78252 5.63117 10.7804 6.22232 12.6005C6.66345 13.9321 7.28699 15.1961 8.07509 16.3566C8.78459 17.4205 9.59855 18.4108 10.5049 19.3129C11.4904 20.3054 12.5819 21.1864 13.7599 21.9402C15.0549 22.7853 16.4768 23.4176 17.9717 23.8132C18.3559 23.908 18.7503 23.9555 19.1461 23.9549C20.5028 23.9466 21.8009 23.4005 22.7554 22.4363L23.5299 21.6618C24.1748 21.0156 24.1748 19.9693 23.5299 19.3231ZM22.813 20.9714C22.8124 20.972 22.8117 20.9727 22.811 20.9734L22.8161 20.9582L22.0415 21.7327C21.0464 22.7404 19.5971 23.155 18.2196 22.8262C16.8317 22.4547 15.5124 21.8633 14.3116 21.0747C13.1959 20.3617 12.1621 19.5282 11.2287 18.5891C10.3699 17.7366 9.59832 16.8005 8.92536 15.7948C8.18928 14.7126 7.60668 13.5337 7.19409 12.2917C6.72111 10.8326 7.11305 9.23154 8.20655 8.1559L9.1076 7.25485C9.35812 7.0032 9.76519 7.00231 10.0168 7.25283C10.0174 7.25348 10.0181 7.25414 10.0188 7.25485L12.8637 10.0998C13.1154 10.3503 13.1163 10.7574 12.8657 11.009C12.8651 11.0096 12.8644 11.0103 12.8637 11.011L11.1932 12.6815C10.7139 13.1556 10.6536 13.909 11.0515 14.4533C11.6557 15.2825 12.3243 16.0628 13.0511 16.787C13.8614 17.6008 14.7422 18.3411 15.6834 18.9992C16.2272 19.3785 16.9645 19.3145 17.4349 18.8473L19.0497 17.2072C19.3002 16.9555 19.7073 16.9546 19.9589 17.2052C19.9596 17.2058 19.9602 17.2065 19.9609 17.2072L22.811 20.0623C23.0627 20.3127 23.0636 20.7197 22.813 20.9714Z" fill="white"/>
</g>
<defs>
<clipPath id="clip0">
<rect width="30" height="30" fill="white"/>
</clipPath>
</defs>
</svg>
