<svg width="40" height="35" viewBox="0 0 40 35" fill="none" xmlns="http://www.w3.org/2000/svg">
<circle cx="15" cy="20" r="14.5" stroke="white"/>
<g clip-path="url(#clip0)">
<path d="M24.5833 18.3335H21.0525L16.5934 11.8475C16.4632 11.6579 16.204 11.6102 16.014 11.7401C15.8244 11.8707 15.7764 12.1299 15.9066 12.3195L20.0412 18.3335H9.95879L14.0934 12.3195C14.2236 12.1299 14.1756 11.8707 13.986 11.7401C13.7972 11.6103 13.5376 11.6579 13.4066 11.8475L8.94746 18.3335H5.41668C5.18637 18.3335 5 18.5199 5 18.7502C5 18.9805 5.18637 19.1668 5.41668 19.1668H5.94531L8.49246 27.1722C8.71383 27.8668 9.35184 28.3335 10.0806 28.3335H19.9195C20.6482 28.3335 21.2862 27.8668 21.5076 27.1718L24.0547 19.1668H24.5834C24.8137 19.1668 25 18.9805 25 18.7502C25 18.5199 24.8136 18.3335 24.5833 18.3335ZM20.7133 26.9191C20.6026 27.2666 20.2836 27.5002 19.9194 27.5002H10.0806C9.71641 27.5002 9.39738 27.2666 9.28672 26.9195L6.81988 19.1668H23.1802L20.7133 26.9191Z" fill="white"/>
</g>
<circle cx="30" cy="10" r="10" fill="#52BA63"/>
<path d="M27.26 15C27.1853 15 27.12 14.9767 27.064 14.93C27.008 14.8833 26.98 14.8227 26.98 14.748V14.132C26.98 14.0573 27.008 14.0013 27.064 13.964C27.12 13.9173 27.1853 13.894 27.26 13.894H29.486V5.914L27.288 6.838C27.232 6.85667 27.1667 6.87067 27.092 6.88C27.0173 6.88 26.98 6.82867 26.98 6.726V6.012C26.98 5.96533 26.9893 5.93267 27.008 5.914C27.036 5.886 27.0733 5.858 27.12 5.83L29.626 4.682C29.738 4.626 29.836 4.598 29.92 4.598H30.494C30.5687 4.598 30.6293 4.626 30.676 4.682C30.732 4.72867 30.76 4.78933 30.76 4.864V13.894H33C33.0747 13.894 33.14 13.9173 33.196 13.964C33.252 14.0013 33.28 14.0573 33.28 14.132V14.748C33.28 14.8227 33.252 14.8833 33.196 14.93C33.14 14.9767 33.0747 15 33 15H27.26Z" fill="white"/>
<defs>
<clipPath id="clip0">
<rect width="20" height="20" fill="white" transform="translate(5 10)"/>
</clipPath>
</defs>
</svg>
