<svg width="30" height="30" viewBox="0 0 30 30" fill="none" xmlns="http://www.w3.org/2000/svg">
<circle cx="15" cy="15" r="14.5" stroke="white"/>
<path d="M15 5C11.123 5 7.96875 8.15422 7.96875 12.0312C7.96875 13.3412 8.3316 14.6195 9.01832 15.7286L14.5998 24.723C14.7067 24.8953 14.895 25 15.0976 25C15.0992 25 15.1007 25 15.1023 25C15.3066 24.9984 15.4954 24.8905 15.6003 24.7152L21.0395 15.6336C21.6883 14.548 22.0312 13.3023 22.0312 12.0312C22.0312 8.15422 18.877 5 15 5ZM20.0338 15.032L15.0887 23.2885L10.0143 15.1112C9.44273 14.188 9.13281 13.123 9.13281 12.0312C9.13281 8.80039 11.7691 6.16406 15 6.16406C18.2309 6.16406 20.8633 8.80039 20.8633 12.0312C20.8633 13.0907 20.5738 14.1284 20.0338 15.032Z" fill="white"/>
<path d="M15 8.51562C13.0615 8.51562 11.4844 10.0927 11.4844 12.0312C11.4844 13.9574 13.0358 15.5469 15 15.5469C16.9884 15.5469 18.5156 13.9362 18.5156 12.0312C18.5156 10.0927 16.9385 8.51562 15 8.51562ZM15 14.3828C13.7009 14.3828 12.6484 13.3268 12.6484 12.0312C12.6484 10.7389 13.7077 9.67969 15 9.67969C16.2923 9.67969 17.3477 10.7389 17.3477 12.0312C17.3477 13.3079 16.3197 14.3828 15 14.3828Z" fill="white"/>
</svg>
