<svg width="30" height="30" viewBox="0 0 30 30" fill="none" xmlns="http://www.w3.org/2000/svg">
<path d="M5.9375 30H24.0625C27.3363 30 30 27.3363 30 24.0625V5.9375C30 2.66375 27.3363 0 24.0625 0H5.9375C2.66375 0 0 2.66375 0 5.9375V24.0625C0 27.3363 2.66375 30 5.9375 30ZM1.875 5.9375C1.875 3.6975 3.6975 1.875 5.9375 1.875H24.0625C26.3025 1.875 28.125 3.6975 28.125 5.9375V24.0625C28.125 26.3025 26.3025 28.125 24.0625 28.125H5.9375C3.6975 28.125 1.875 26.3025 1.875 24.0625V5.9375Z" fill="white"/>
<path d="M15.0004 22.6624C19.2254 22.6624 22.6629 19.2249 22.6629 14.9999C22.6629 10.7749 19.2254 7.3374 15.0004 7.3374C10.7754 7.3374 7.33789 10.7749 7.33789 14.9999C7.33789 19.2249 10.7754 22.6624 15.0004 22.6624ZM15.0004 9.2124C18.1916 9.2124 20.7879 11.8087 20.7879 14.9999C20.7879 18.1912 18.1916 20.7874 15.0004 20.7874C11.8091 20.7874 9.21289 18.1912 9.21289 14.9999C9.21289 11.8087 11.8091 9.2124 15.0004 9.2124Z" fill="white"/>
<path d="M22.9471 9.2024C24.1796 9.2024 25.1084 8.2774 25.1084 7.05115C25.1084 5.7724 24.1309 4.8999 22.9484 4.8999C21.7159 4.8999 20.7871 5.8249 20.7871 7.05115C20.7871 8.3274 21.7596 9.2024 22.9471 9.2024ZM23.1684 6.8449C23.5634 7.19365 22.6621 7.6174 22.6621 7.0524C22.6621 6.7149 23.1209 6.8024 23.1684 6.8449Z" fill="white"/>
</svg>
