<svg width="50" height="44" viewBox="0 0 50 44" fill="none" xmlns="http://www.w3.org/2000/svg">
<path d="M30.7663 32.3208H28.0254C27.6209 32.3208 27.293 32.6487 27.293 33.0532C27.293 33.4578 27.6209 33.7857 28.0254 33.7857H30.7663C31.1708 33.7857 31.4987 33.4578 31.4987 33.0532C31.4987 32.6487 31.1708 32.3208 30.7663 32.3208Z" fill="white"/>
<path d="M46.8994 24.4799L42.911 22.9415L40.8775 20.908C40.7469 20.7774 40.5787 20.7067 40.4068 20.6957V19.0776C41.3652 18.0557 42.0474 16.7617 42.3227 15.3039C42.4936 15.3116 42.6662 15.2978 42.8364 15.2631C43.8109 15.0635 44.5182 14.1593 44.5182 13.1132V12.5792C44.5182 11.974 44.2728 11.4185 43.8732 11.0213C44.52 7.50375 43.9873 4.63714 42.3257 2.71848C40.7186 0.86271 38.1293 -0.024305 34.8382 0.153723C31.7976 0.318079 29.8347 1.71711 29.2128 2.22893C28.8724 2.26936 28.2925 2.38889 27.7056 2.74104C26.8921 3.22913 25.9224 4.25442 25.9224 6.36703C25.9224 8.21 26.217 9.74868 26.4303 10.6216C25.7154 10.9699 25.2372 11.7246 25.2372 12.5874V13.1131C25.2372 14.1592 25.9445 15.0634 26.919 15.263C27.0892 15.2978 27.2619 15.3115 27.4327 15.3038C27.708 16.7616 28.3903 18.0556 29.3486 19.0775V20.6956C29.1768 20.7066 29.0084 20.7773 28.8779 20.9079L26.8444 22.9414L22.856 24.4798C22.511 24.6128 22.1814 24.7854 21.8765 24.9925C21.542 25.2198 21.455 25.6753 21.6823 26.0099C21.824 26.2185 22.0544 26.3308 22.2887 26.3308C22.4304 26.3308 22.5736 26.2897 22.6997 26.2041C22.9123 26.0597 23.1423 25.9394 23.3832 25.8464L27.0847 24.4187L29.9147 28.6639C30.2655 29.1902 30.8278 29.5278 31.4572 29.5901C31.5272 29.597 31.5973 29.6004 31.6668 29.6004C32.0312 29.6004 32.3847 29.5046 32.6976 29.3276L32.0902 43.1038C32.0724 43.5079 32.3856 43.85 32.7898 43.8678C32.8007 43.8682 32.8116 43.8684 32.8226 43.8684C33.2122 43.8684 33.5364 43.5613 33.5537 43.1682L34.1174 30.381H35.6379L36.2016 43.1682C36.2189 43.5614 36.5431 43.8684 36.9327 43.8684C36.9437 43.8684 36.9546 43.8682 36.9656 43.8678C37.3697 43.85 37.6828 43.5079 37.6651 43.1038L37.0577 29.3276C37.3706 29.5046 37.724 29.6004 38.0885 29.6004C38.158 29.6004 38.2281 29.597 38.2981 29.5901C38.9275 29.5278 39.4897 29.1902 39.8406 28.6639L42.6707 24.4187L46.3721 25.8464C46.8913 26.0466 47.3381 26.366 47.6895 26.7646L45.1572 29.2969C44.2422 30.2118 43.7384 31.4283 43.7384 32.722V43.1361C43.7384 43.5406 44.0664 43.8685 44.4709 43.8685C44.8753 43.8685 45.2033 43.5406 45.2033 43.1361V32.722C45.2033 31.8196 45.5547 30.9709 46.1929 30.3327L48.4154 28.1103C48.5047 28.4377 48.5464 28.782 48.5323 29.1339L47.965 43.1064C47.9486 43.5106 48.263 43.8515 48.6671 43.868C48.6772 43.8684 48.6873 43.8686 48.6973 43.8686C49.0881 43.8686 49.4127 43.5599 49.4286 43.166L49.9961 29.1931C50.0792 27.1204 48.8347 25.2264 46.8994 24.4799ZM28.8665 15.0018C28.7373 14.2986 28.0861 13.7875 27.3833 13.8395C27.3277 13.8435 27.2705 13.8396 27.2129 13.8279C26.9217 13.7683 26.702 13.461 26.702 13.1132V12.5873C26.702 12.2475 26.9291 11.9415 27.2188 11.8906C27.4634 11.8476 27.6975 11.9374 27.8457 12.1306C27.9802 12.3059 28.1596 12.4313 28.3643 12.493C28.6643 12.5837 28.9951 12.5304 29.2494 12.3509C29.7074 12.0276 30.1115 11.6326 30.4505 11.1767C30.6919 10.8521 30.6243 10.3933 30.2998 10.152C29.9751 9.9106 29.5164 9.97808 29.275 10.3027C29.1059 10.53 28.9149 10.7364 28.7047 10.919C28.4725 10.7204 28.2012 10.5768 27.9104 10.4949C27.7223 9.77398 27.3873 8.22954 27.3873 6.36683C27.3873 5.24505 27.7331 4.45686 28.415 4.02425C28.9472 3.68665 29.5103 3.67317 29.51 3.67307C29.6972 3.67307 29.8794 3.59934 30.0153 3.47073C30.0332 3.45393 31.8337 1.78303 34.9171 1.61633C37.7396 1.46398 39.9185 2.17648 41.2182 3.67727C42.5282 5.18997 42.9644 7.51235 42.4912 10.4191C42.295 10.4122 42.0802 10.427 41.8664 10.4626L41.1784 8.8101C41.0379 8.47299 40.6702 8.29096 40.3168 8.38305C40.2488 8.40083 33.485 10.1155 30.6489 6.58461C30.3957 6.26927 29.9348 6.21888 29.6192 6.4722C29.3039 6.72553 29.2535 7.18647 29.5069 7.5019C32.403 11.1076 38.1495 10.3232 40.0624 9.94067L40.5946 11.2185C40.8234 11.7678 41.4087 12.0678 41.9857 11.9318C42.2225 11.876 42.4488 11.8748 42.5337 11.8916C42.8299 11.9505 43.0533 12.246 43.0533 12.579V13.1131C43.0533 13.461 42.8336 13.7682 42.5424 13.8278C42.4849 13.8396 42.4274 13.8435 42.372 13.8394C41.6693 13.7882 41.0181 14.2984 40.8888 15.0018C40.356 17.9026 37.828 20.0081 34.8777 20.0081C31.9273 20.0081 29.3993 17.9026 28.8665 15.0018ZM32.1156 27.9488C31.9299 28.1345 31.714 28.1436 31.6017 28.1324C31.4895 28.1214 31.2794 28.07 31.1337 27.8515L28.2826 23.5749L29.4292 22.4283L33.8062 26.2582L32.1156 27.9488ZM34.1819 28.9162L34.2263 27.9096L34.8776 27.2583L35.5288 27.9096L35.5732 28.9162H34.1819ZM34.8777 25.2492L30.8135 21.6931V20.2913C31.9951 21.0428 33.3932 21.4729 34.8777 21.4729C36.3621 21.4729 37.7603 21.0428 38.9419 20.2913V21.6931L34.8777 25.2492ZM38.6218 27.8515C38.476 28.0701 38.2659 28.1214 38.1538 28.1324C38.0414 28.1436 37.8255 28.1345 37.6398 27.9487L35.9492 26.2581L40.3262 22.4282L41.4728 23.5748L38.6218 27.8515Z" fill="white"/>
<path d="M23.2271 28.3181L19.6507 26.757L17.6957 24.8021C17.5648 24.671 17.3964 24.6007 17.225 24.5897V23.4375C18.8958 22.3395 20.1185 20.5933 20.5114 18.5126C20.7038 18.5212 20.898 18.5027 21.0894 18.4575C22.0266 18.2357 22.7068 17.3376 22.7068 16.3219V15.788C22.7068 15.046 22.3386 14.3785 21.7682 13.9869C21.936 13.3222 22.0215 12.6422 22.0215 11.9578C22.0215 8.92337 20.3813 6.25071 17.9089 4.71613C17.8826 2.1836 15.7209 0.130859 13.0663 0.130859C10.4117 0.130859 8.2501 2.1836 8.22373 4.71613C5.75145 6.25071 4.11121 8.92347 4.11121 11.9578C4.11121 12.6402 4.19618 13.3182 4.36297 13.981C3.79285 14.3707 3.42596 15.0413 3.42596 15.796V16.3219C3.42596 17.3376 4.10614 18.2357 5.04335 18.4575C5.23475 18.5028 5.42889 18.5212 5.62138 18.5126C6.01425 20.5933 7.23701 22.3395 8.90781 23.4375V24.5897C8.73643 24.6007 8.56807 24.671 8.43711 24.8021L6.48212 26.757L2.90584 28.3181C1.0862 29.1124 -0.0798178 30.9788 0.00426452 32.9625L0.436786 43.167C0.453485 43.5605 0.777803 43.8684 1.16804 43.8684C1.17849 43.8684 1.18903 43.8682 1.19958 43.8678C1.60378 43.8507 1.91746 43.5092 1.90037 43.105L1.46775 32.9004C1.43991 32.2429 1.61081 31.6049 1.9321 31.0558L3.85447 33.3626C4.462 34.0916 4.79647 35.0157 4.79647 35.9645V43.136C4.79647 43.5405 5.1244 43.8684 5.5289 43.8684C5.93339 43.8684 6.26132 43.5405 6.26132 43.136V35.9645C6.26132 34.6737 5.80614 33.4166 4.97977 32.4249L2.93611 29.9725C3.10984 29.8528 3.29451 29.7467 3.49188 29.6606L6.60868 28.3L8.81123 31.8751C9.02871 32.2282 9.38829 32.4675 9.79786 32.532C9.87149 32.5436 9.94532 32.5493 10.0189 32.5493C10.3537 32.5493 10.6799 32.4306 10.9385 32.2099L12.3342 31.019V43.1359C12.3342 43.5404 12.6621 43.8683 13.0666 43.8683C13.4711 43.8683 13.799 43.5404 13.799 43.1359V31.0192L15.1947 32.2101C15.4532 32.4308 15.7794 32.5494 16.1143 32.5494C16.1877 32.5494 16.2617 32.5437 16.3353 32.5322C16.7449 32.4677 17.1044 32.2284 17.3219 31.8753L19.5245 28.3001L22.6413 29.6607C22.8385 29.7468 23.0233 29.8529 23.197 29.9726L21.1534 32.425C20.327 33.4166 19.8718 34.6738 19.8718 35.9646V43.1361C19.8718 43.5406 20.1998 43.8685 20.6042 43.8685C21.0087 43.8685 21.3367 43.5406 21.3367 43.1361V35.9646C21.3367 35.0158 21.6712 34.0917 22.2787 33.3627L24.201 31.0559C24.5223 31.605 24.6932 32.243 24.6654 32.9005L24.2329 43.1051C24.2158 43.5092 24.5295 43.8507 24.9337 43.8679C24.9442 43.8683 24.9547 43.8685 24.9652 43.8685C25.3554 43.8685 25.6798 43.5607 25.6965 43.1671L26.129 32.9626C26.213 30.9789 25.0468 29.1124 23.2271 28.3181ZM13.0665 1.59571C14.6247 1.59571 15.9394 2.58976 16.3282 3.93664C15.317 3.55499 14.2168 3.34513 13.0665 3.34513C11.9162 3.34513 10.816 3.55499 9.80489 3.93664C10.1937 2.58976 11.5082 1.59571 13.0665 1.59571ZM7.05527 18.2107C6.92617 17.5073 6.27392 16.9964 5.57216 17.0483C5.50995 17.0527 5.44569 17.0474 5.38085 17.032C5.10155 16.9659 4.8909 16.6606 4.8909 16.3219V15.796C4.8909 15.4562 5.11796 15.1502 5.4077 15.0993C5.65224 15.0563 5.88632 15.1462 6.03437 15.3392C6.16884 15.5146 6.34824 15.64 6.55322 15.7019C6.85312 15.7925 7.18408 15.7393 7.43818 15.5597C7.88926 15.2414 8.28809 14.8533 8.62363 14.4064C8.86651 14.083 8.80117 13.6238 8.47773 13.381C8.1542 13.1381 7.69511 13.2035 7.45224 13.5269C7.28613 13.7481 7.09912 13.9492 6.89345 14.1278C6.58007 13.8598 6.19579 13.692 5.78817 13.6412C5.64784 13.0895 5.57606 12.5253 5.57606 11.9579C5.57606 8.01663 8.93623 4.81008 13.0665 4.81008C17.1967 4.81008 20.5569 8.01654 20.5569 11.9579C20.5569 12.5243 20.4855 13.0873 20.3457 13.6379C20.1529 13.6533 19.957 13.6848 19.7756 13.7319L19.225 13.2792C18.9484 13.0516 18.6001 12.9377 18.2477 12.9587C17.1711 13.0223 11.6576 13.1679 8.82891 9.78256C8.56953 9.4722 8.10771 9.4308 7.79726 9.69017C7.48681 9.94955 7.44551 10.4115 7.70488 10.7218C9.1 12.3915 11.1462 13.5205 13.7865 14.0775C15.8081 14.504 17.6052 14.4626 18.3093 14.4224L19.1683 15.1288C19.4047 15.3232 19.7363 15.3506 20.001 15.1965C20.1252 15.1289 20.5413 15.0642 20.7228 15.1004C21.019 15.1593 21.2422 15.4548 21.2422 15.788V16.3219C21.2422 16.6607 21.0316 16.966 20.7523 17.032C20.6875 17.0473 20.6232 17.0529 20.561 17.0482C19.8596 16.9972 19.207 17.5073 19.0778 18.2106C18.545 21.1115 16.0169 23.217 13.0666 23.217C10.1162 23.217 7.58808 21.1115 7.05527 18.2107ZM10.0295 31.06L7.82656 27.4842L8.95508 26.3557L11.9881 29.3887L10.0295 31.06ZM13.0665 28.3954L10.3728 25.7017V24.1864C11.2137 24.5065 12.1224 24.6818 13.0665 24.6818C14.0107 24.6818 14.9194 24.5065 15.7603 24.1865V25.7017L13.0665 28.3954ZM16.1035 31.06L14.1449 29.3887L17.178 26.3557L18.3065 27.4842L16.1035 31.06Z" fill="white"/>
<path d="M10.3257 35.5513H8.27002C7.86553 35.5513 7.5376 35.8792 7.5376 36.2837C7.5376 36.6882 7.86553 37.0161 8.27002 37.0161H10.3257C10.7302 37.0161 11.0581 36.6882 11.0581 36.2837C11.0581 35.8792 10.7302 35.5513 10.3257 35.5513Z" fill="white"/>
</svg>
