<svg width="16" height="16" viewBox="0 0 16 16" fill="none" xmlns="http://www.w3.org/2000/svg">
<path d="M14.7615 7.98881C14.8579 7.76986 14.9551 7.55198 15.0436 7.35362C15.5501 6.21853 15.5477 6.20878 15.5187 6.08963C15.1281 4.48681 13.4776 3.73464 13.0612 3.56832C12.8419 3.05134 12.4317 2.46681 11.6663 2.02541C10.4026 1.29668 9.9143 0.206921 9.90974 0.196554C9.87487 0.115933 9.80154 0.0584298 9.71491 0.0438467C9.68692 0.039147 9.02021 -0.0700532 8.23735 0.074948C7.55478 0.201427 6.99551 0.482548 6.58072 0.901586C6.13535 0.542332 5.53019 0.410427 5.09985 0.363257C4.67273 0.316432 4.25303 0.336475 4.15178 0.370825C4.06725 0.399542 4.00045 0.471455 3.97993 0.558366C3.91779 0.821241 3.72427 1.11712 3.53711 1.40329C3.2412 1.8556 2.93599 2.32247 3.00248 2.82237C1.95167 3.37694 0.8379 4.42402 0.671197 4.58329C0.641201 4.61194 0.618532 4.64736 0.605089 4.68658C0.596346 4.71198 0.390421 5.31808 0.285126 6.12526C0.141265 7.22859 0.252642 8.13727 0.616182 8.82596C0.626998 8.84649 0.638679 8.86618 0.649944 8.88626C0.31754 9.49457 0.445989 10.0492 0.559543 10.5388C0.648009 10.9201 0.72438 11.2495 0.599767 11.58C0.571362 11.6555 0.580208 11.7413 0.622886 11.8097C0.715775 11.9586 1.9251 12.8225 3.19807 12.9548C3.2194 13.0409 3.24677 13.128 3.28264 13.2155C3.57233 13.9214 4.2746 14.4843 5.36998 14.8885C5.9305 15.0953 6.32656 15.2916 6.67596 15.4647C7.10862 15.6791 7.48221 15.8642 7.97209 15.96C8.10873 15.9867 8.24796 16 8.38899 16C9.05355 16 9.75734 15.7064 10.4106 15.1491C10.5415 15.0374 10.7288 14.9281 10.927 14.8124C11.6079 14.415 12.5362 13.8721 12.4833 12.4853C12.6025 12.4196 12.7193 12.3491 12.8333 12.2713C12.85 12.2884 12.8691 12.3037 12.8909 12.3161C12.9944 12.3752 13.0974 12.4016 13.1998 12.4016C13.6574 12.4016 14.1049 11.8737 14.5401 11.3601C14.8664 10.9751 15.2362 10.5387 15.537 10.4185C15.6141 10.3876 15.7472 10.3006 15.7717 10.0643C15.822 9.58086 15.3852 8.48339 14.7615 7.98881ZM14.9995 6.1519C14.9442 6.30433 14.7466 6.74708 14.5702 7.14237C14.3073 7.7315 14.078 8.24986 13.9158 8.64954C13.8873 8.56098 13.858 8.47185 13.8285 8.38218C13.6841 7.94379 13.5349 7.49047 13.4771 7.04109C13.4226 6.61742 13.3067 6.25257 13.1317 5.94822C13.3248 5.44245 13.371 4.81994 13.2612 4.23402C13.8222 4.5299 14.7253 5.14685 14.9995 6.1519ZM11.6338 12.3286C11.1084 12.5756 10.5129 12.8556 9.90794 13.3867C9.12764 14.0717 8.13973 13.8367 7.49614 13.3096C7.66989 13.1835 7.83342 13.0308 7.98422 12.8527C8.59194 12.7763 9.2149 12.5583 9.80199 12.2062C10.8696 11.566 11.6838 10.5576 12.0358 9.43972C12.4899 7.99752 12.0063 6.4174 11.242 5.41034C11.5138 5.41691 11.9172 5.47742 12.2655 5.73393C12.6473 6.01513 12.882 6.47715 12.963 7.10723C13.0271 7.60568 13.1842 8.08284 13.3362 8.54432C13.5717 9.25961 13.7942 9.93524 13.5759 10.4865C13.1237 11.6282 12.4662 11.9372 11.6338 12.3286ZM3.3843 10.8511C3.16341 10.3715 2.88872 10.0555 2.64637 9.77679C2.31272 9.39304 2.04916 9.0899 1.96346 8.4552C1.765 6.98511 2.68967 5.56609 3.66038 4.97731C3.92761 4.81524 4.17943 4.72884 4.38732 4.72162C3.8228 5.35156 3.19462 6.39228 3.21528 7.41392C3.22772 8.02928 3.47349 8.53627 3.94572 8.92085C4.07029 9.02231 4.19905 9.11157 4.33116 9.18884C4.1834 9.64641 4.25148 10.3216 4.51905 10.9403C4.74447 11.4617 5.31016 12.3908 6.56583 12.7548C6.77583 12.8157 6.99416 12.8543 7.21778 12.8722C6.84705 13.1515 6.42439 13.269 5.97248 13.2139C4.99224 13.0946 4.00052 12.1892 3.3843 10.8511ZM4.75003 2.54543C5.16731 2.22951 6.02999 1.79523 7.11898 2.43595C7.90733 2.89981 8.67163 3.07588 9.28571 3.21732C10.1311 3.41205 10.5804 3.53766 10.7534 4.05291C10.8688 4.39647 10.6422 4.62244 10.5365 4.70555C10.0017 4.31917 9.42881 4.20413 8.92144 4.38853C8.66019 4.14784 8.34921 3.95539 7.99545 3.82041C6.93718 3.41654 5.72202 3.60111 4.84703 4.28541C4.52475 4.14887 4.11961 4.18139 3.68498 4.37854C3.70582 3.74435 4.20949 2.95462 4.75003 2.54543ZM6.71017 12.257C5.65857 11.9521 5.18407 11.1723 4.9948 10.7346C4.76935 10.2132 4.73216 9.712 4.80681 9.40887C4.92126 9.44878 5.03751 9.48036 5.15521 9.50338C5.42773 10.1805 6.12706 10.7251 6.93666 10.8776C7.09448 10.9074 7.25213 10.922 7.40867 10.922C8.23227 10.922 9.02428 10.5162 9.63494 9.76643C10.3417 8.8986 10.9961 7.70631 9.81529 6.15498C9.74511 5.65279 9.57011 5.20317 9.30492 4.82626C9.78039 4.76852 10.2179 5.08907 10.4554 5.30798C11.346 6.12913 11.9957 7.84084 11.5413 9.28401C11.2269 10.2827 10.4958 11.1858 9.53538 11.7616C8.59633 12.3248 7.56657 12.5053 6.71017 12.257ZM5.04881 4.79087C5.77675 4.14742 6.88669 3.95211 7.81068 4.30469C8.1803 4.44575 8.74966 4.76561 9.07747 5.45478C8.66499 5.17815 8.18831 5.00551 7.69183 4.96169C7.0376 4.90408 6.42197 5.08568 6.00231 5.46024C5.24046 6.14022 4.96128 6.97595 5.23632 7.7531C5.43111 8.30359 5.89166 8.7435 6.39705 8.89435C5.87448 9.08358 5.07846 9.17488 4.27304 8.51902C3.92426 8.235 3.74273 7.85967 3.73354 7.40356C3.71957 6.7129 4.1758 5.56257 5.04881 4.79087ZM6.88717 8.48944C6.73284 8.36379 6.63674 8.18555 6.61649 7.98761C6.59624 7.78966 6.65429 7.59562 6.77994 7.44133C6.90559 7.28703 7.08384 7.19089 7.28178 7.17064C7.3076 7.16798 7.33334 7.1667 7.35898 7.1667C7.52966 7.1667 7.69384 7.22486 7.82802 7.33413C8.14657 7.59355 8.19464 8.06373 7.93525 8.38228C7.80957 8.53658 7.63136 8.63272 7.43342 8.65297C7.23558 8.67322 7.04144 8.61509 6.88717 8.48944ZM7.35528 9.17529C7.39869 9.17529 7.4424 9.17308 7.48619 9.16859C7.82191 9.13424 8.12414 8.97124 8.33722 8.70957C8.7771 8.16941 8.69554 7.37208 8.15542 6.93216C7.89375 6.71909 7.5647 6.62056 7.22905 6.65498C6.89333 6.68933 6.59109 6.85234 6.37801 7.114C6.1649 7.37567 6.06645 7.70465 6.1008 8.04037C6.10477 8.07928 6.11068 8.11771 6.11807 8.15566C5.94629 8.00519 5.8043 7.80428 5.72499 7.58014C5.52076 7.00304 5.74182 6.38751 6.3475 5.8469C6.66079 5.56727 7.13405 5.43284 7.64625 5.47801C8.31462 5.53703 8.94069 5.87973 9.36388 6.4183C10.3132 7.62635 9.99814 8.4996 9.23304 9.4391C8.40758 10.4527 7.50025 10.4563 7.03269 10.3682C6.49312 10.2666 6.01865 9.95286 5.75872 9.54723C5.83954 9.5434 5.92072 9.5361 6.00217 9.52456C6.26079 9.488 6.65654 9.39211 7.07904 9.1445C7.16906 9.16479 7.26157 9.17529 7.35528 9.17529ZM8.31759 0.587325C8.82406 0.491395 9.28578 0.517623 9.50107 0.539256C9.68353 0.885448 10.2512 1.80774 11.4074 2.47445C12.2624 2.96751 12.5914 3.6668 12.7168 4.16664C12.836 4.64193 12.8156 5.09802 12.7381 5.45299C12.6855 5.40478 12.6307 5.3591 12.5729 5.31656C12.0306 4.91711 11.4035 4.88 11.0719 4.89437C11.2543 4.65693 11.3863 4.30929 11.2448 3.8879C10.9713 3.0737 10.2441 2.9062 9.40206 2.71224C8.79241 2.5718 8.1014 2.41263 7.38186 1.98923C7.12268 1.83673 6.87377 1.73396 6.63684 1.66958C6.97733 1.09808 7.54113 0.734365 8.31759 0.587325ZM3.97094 1.68707C4.14632 1.41894 4.32664 1.14328 4.43052 0.856835C4.7926 0.840282 5.71624 0.870727 6.25454 1.30435C6.19593 1.39337 6.14199 1.4865 6.09316 1.58391C5.35616 1.55281 4.77799 1.87426 4.43722 2.13216C4.29944 2.23645 4.16982 2.3536 4.04994 2.48001C3.88562 2.48616 3.70662 2.52656 3.51952 2.59218C3.5585 2.31839 3.75976 2.0099 3.97094 1.68707ZM1.07648 4.91379C1.22186 4.77854 1.68621 4.35504 2.23739 3.94008C2.82932 3.49443 3.25903 3.25395 3.56569 3.12761C3.26529 3.644 3.11579 4.20804 3.18591 4.66968C2.13171 5.41878 1.23327 6.92121 1.44973 8.52459C1.48916 8.81673 1.56284 9.05663 1.65738 9.26314C1.41549 9.08825 1.22242 8.86356 1.07524 8.58513C0.389834 7.28841 0.961856 5.28231 1.07648 4.91379ZM1.06459 10.4217C0.978374 10.0499 0.901796 9.71919 1.00429 9.37445C1.32363 9.71649 1.73745 9.95984 2.24112 10.1007C2.24582 10.1061 2.25052 10.1115 2.25519 10.1169C2.48547 10.3818 2.72364 10.6556 2.91346 11.0679C3.02933 11.3195 3.15878 11.5588 3.29926 11.7837C3.29577 11.7898 3.29235 11.7959 3.28931 11.8024C3.21342 11.9642 3.15526 12.1809 3.14462 12.4262C2.26269 12.3024 1.44476 11.7975 1.14121 11.5796C1.23862 11.1722 1.15033 10.7915 1.06459 10.4217ZM10.6658 14.3648C10.4471 14.4925 10.2404 14.6131 10.0744 14.7548C9.40514 15.3256 8.69399 15.5731 8.07169 15.4514C7.65012 15.3689 7.32183 15.2063 6.90622 15.0003C6.5452 14.8214 6.13597 14.6186 5.54954 14.4023C4.60931 14.0553 3.9913 13.5769 3.76229 13.0188C3.64904 12.7428 3.64683 12.4963 3.67427 12.3159C3.84975 12.5361 4.03719 12.7355 4.23399 12.9102C4.7585 13.376 5.33795 13.6589 5.9098 13.7286C6.00231 13.7398 6.09413 13.7454 6.18505 13.7454C6.47408 13.7454 6.75416 13.6889 7.01856 13.579C7.02177 13.5824 7.02482 13.5858 7.02824 13.589C7.43445 13.9686 7.9675 14.2298 8.49065 14.3055C8.60162 14.3216 8.71123 14.3296 8.81946 14.3296C9.34466 14.3296 9.83406 14.1414 10.2499 13.7763C10.7998 13.2936 11.3359 13.0415 11.8543 12.7977C11.8905 12.7807 11.9267 12.7637 11.9627 12.7467C11.9002 13.6442 11.2736 14.01 10.6658 14.3648ZM14.1447 11.025C13.9119 11.2998 13.5928 11.6765 13.3619 11.8203C13.6253 11.5374 13.8613 11.1732 14.0577 10.6774C14.2056 10.3039 14.2108 9.92083 14.145 9.52698C14.1632 9.50044 14.1773 9.47045 14.1847 9.43706C14.2223 9.26877 14.3675 8.90388 14.5451 8.48723C14.9809 8.91235 15.2612 9.71926 15.2595 9.97539C14.8705 10.1686 14.502 10.6035 14.1447 11.025Z" fill="#52BA63"/>
</svg>
