<svg width="464" height="464" viewBox="0 0 464 464" fill="none" xmlns="http://www.w3.org/2000/svg">
<g clip-path="url(#clip0)">
<path d="M427.162 231.178C429.951 224.842 432.764 218.537 435.325 212.797C449.983 179.95 449.914 179.668 449.074 176.22C437.772 129.838 390.009 108.072 377.96 103.259C371.613 88.2988 359.745 71.3838 337.595 58.6108C301.026 37.5228 286.896 5.98782 286.764 5.68782C285.755 3.35482 283.633 1.69082 281.126 1.26882C280.316 1.13282 261.023 -2.02718 238.369 2.16882C218.617 5.82882 202.433 13.9638 190.43 26.0898C177.542 15.6938 160.03 11.8768 147.577 10.5118C135.217 9.15682 123.072 9.73682 120.142 10.7308C117.696 11.5618 115.763 13.6428 115.169 16.1578C113.371 23.7648 107.771 32.3268 102.355 40.6078C93.7921 53.6968 84.9601 67.2068 86.8841 81.6728C56.4761 97.7208 24.2461 128.021 19.4221 132.63C18.5541 133.459 17.8981 134.484 17.5091 135.619C17.2561 136.354 11.2971 153.893 8.25008 177.251C4.08708 209.179 7.31008 235.474 17.8301 255.403C18.1431 255.997 18.4811 256.567 18.8071 257.148C9.18808 274.751 12.9051 290.8 16.1911 304.968C18.7511 316.004 20.9611 325.534 17.3551 335.098C16.5331 337.284 16.7891 339.766 18.0241 341.747C20.7121 346.055 55.7071 371.055 92.5441 374.882C93.1611 377.375 93.9531 379.895 94.9911 382.426C103.374 402.853 123.696 419.141 155.394 430.838C171.614 436.823 183.075 442.503 193.186 447.513C205.706 453.716 216.517 459.074 230.693 461.846C234.647 462.619 238.676 463.002 242.757 463.002C261.988 463.002 282.354 454.507 301.259 438.379C305.046 435.148 310.465 431.985 316.201 428.637C335.906 417.136 362.768 401.428 361.236 361.296C364.685 359.395 368.067 357.354 371.365 355.102C371.847 355.599 372.401 356.04 373.033 356.401C376.028 358.109 379.007 358.874 381.972 358.874C395.214 358.874 408.161 343.597 420.755 328.736C430.197 317.594 440.899 304.966 449.604 301.487C451.835 300.594 455.687 298.076 456.396 291.237C457.851 277.248 445.21 245.49 427.162 231.178ZM434.049 178.022C432.449 182.433 426.733 195.245 421.627 206.684C414.02 223.732 407.385 238.732 402.689 250.298C401.866 247.735 401.018 245.156 400.163 242.561C395.986 229.875 391.667 216.757 389.994 203.753C388.417 191.493 385.064 180.935 380 172.128C385.589 157.492 386.924 139.478 383.748 122.523C399.982 131.085 426.116 148.938 434.049 178.022ZM336.654 356.762C321.45 363.91 304.217 372.012 286.712 387.381C264.132 407.204 235.544 400.401 216.92 385.15C221.948 381.5 226.68 377.082 231.044 371.927C248.63 369.716 266.657 363.409 283.646 353.22C314.541 334.694 338.101 305.514 348.287 273.164C361.427 231.43 347.433 185.705 325.316 156.563C333.181 156.753 344.855 158.504 354.934 165.927C365.982 174.064 372.773 187.434 375.118 205.667C376.972 220.091 381.519 233.899 385.917 247.253C392.732 267.952 399.171 287.503 392.853 303.456C379.768 336.492 360.742 345.436 336.654 356.762ZM97.9331 314.005C91.5411 300.127 83.5921 290.984 76.5791 282.918C66.9241 271.813 59.2971 263.041 56.8171 244.674C51.0741 202.133 77.8321 161.07 105.922 144.032C113.655 139.342 120.942 136.842 126.958 136.633C110.622 154.862 92.4441 184.978 93.0421 214.542C93.4021 232.349 100.514 247.02 114.179 258.149C117.784 261.085 121.51 263.668 125.333 265.904C121.057 279.145 123.027 298.682 130.77 316.588C137.293 331.675 153.663 358.56 189.999 369.095C196.076 370.857 202.394 371.975 208.865 372.491C198.137 380.575 185.906 383.973 172.829 382.381C144.463 378.929 115.765 352.728 97.9331 314.005ZM137.454 73.6588C149.529 64.5168 174.493 51.9498 206.006 70.4908C228.819 83.9138 250.936 89.0088 268.706 93.1018C293.171 98.7368 306.171 102.372 311.179 117.282C314.517 127.224 307.961 133.763 304.901 136.168C289.424 124.987 272.847 121.658 258.165 126.994C250.605 120.029 241.606 114.46 231.369 110.554C200.745 98.8668 165.581 104.208 140.261 124.01C130.935 120.059 119.211 121 106.634 126.705C107.237 108.353 121.812 85.4998 137.454 73.6588ZM194.176 354.69C163.745 345.866 150.014 323.301 144.537 310.636C138.013 295.547 136.937 281.043 139.097 272.271C142.409 273.426 145.773 274.34 149.179 275.006C157.065 294.599 177.302 310.359 200.73 314.773C205.297 315.634 209.859 316.058 214.389 316.058C238.222 316.058 261.141 304.316 278.812 282.618C299.264 257.505 318.202 223.003 284.031 178.111C282 163.579 276.936 150.568 269.262 139.661C283.021 137.99 295.682 147.266 302.554 153.601C328.326 177.363 347.127 226.896 333.979 268.658C324.879 297.557 303.722 323.69 275.931 340.355C248.757 356.652 218.958 361.874 194.176 354.69ZM146.1 138.637C167.165 120.017 199.284 114.365 226.022 124.568C236.718 128.65 253.194 137.906 262.68 157.849C250.744 149.844 236.95 144.848 222.583 143.58C203.651 141.913 185.836 147.168 173.692 158.007C151.646 177.684 143.567 201.868 151.526 224.357C157.163 240.287 170.49 253.017 185.115 257.382C169.993 262.858 146.958 265.5 123.651 246.521C113.558 238.302 108.305 227.441 108.039 214.242C107.635 194.256 120.837 160.968 146.1 138.637ZM199.298 245.665C194.832 242.029 192.051 236.871 191.465 231.143C190.879 225.415 192.559 219.8 196.195 215.335C199.831 210.87 204.989 208.088 210.717 207.502C211.464 207.425 212.209 207.388 212.951 207.388C217.89 207.388 222.641 209.071 226.524 212.233C235.742 219.74 237.133 233.346 229.627 242.564C225.99 247.029 220.833 249.811 215.105 250.397C209.38 250.983 203.762 249.301 199.298 245.665ZM212.844 265.512C214.1 265.512 215.365 265.448 216.632 265.318C226.347 264.324 235.093 259.607 241.259 252.035C253.988 236.404 251.628 213.331 235.998 200.601C228.426 194.435 218.904 191.584 209.191 192.58C199.476 193.574 190.73 198.291 184.564 205.863C178.397 213.435 175.548 222.955 176.542 232.67C176.657 233.796 176.828 234.908 177.042 236.006C172.071 231.652 167.962 225.838 165.667 219.352C159.757 202.652 166.154 184.84 183.681 169.196C192.747 161.104 206.442 157.214 221.264 158.521C240.605 160.229 258.722 170.146 270.968 185.731C298.44 220.689 289.322 245.959 267.182 273.146C243.295 302.477 217.039 302.582 203.509 300.033C187.895 297.091 174.165 288.013 166.643 276.275C168.982 276.164 171.331 275.953 173.688 275.619C181.172 274.561 192.624 271.786 204.85 264.621C207.455 265.208 210.132 265.512 212.844 265.512ZM240.691 16.9958C255.347 14.2198 268.708 14.9788 274.938 15.6048C280.218 25.6228 296.644 52.3118 330.102 71.6048C354.844 85.8728 364.364 106.109 367.993 120.573C371.443 134.327 370.852 147.525 368.609 157.797C367.089 156.402 365.501 155.08 363.829 153.849C348.136 142.29 329.99 141.216 320.394 141.632C325.673 134.761 329.493 124.701 325.397 112.507C317.484 88.9458 296.44 84.0988 272.073 78.4858C254.431 74.4218 234.435 69.8158 213.613 57.5638C206.113 53.1508 198.91 50.1768 192.054 48.3138C201.907 31.7758 218.222 21.2508 240.691 16.9958ZM114.909 48.8198C119.984 41.0608 125.202 33.0838 128.208 24.7948C138.686 24.3158 165.414 25.1968 180.991 37.7448C179.295 40.3208 177.734 43.0158 176.321 45.8348C154.994 44.9348 138.263 54.2368 128.402 61.6998C124.415 64.7178 120.664 68.1078 117.195 71.7658C112.44 71.9438 107.26 73.1128 101.846 75.0118C102.974 67.0888 108.798 58.1618 114.909 48.8198ZM31.1501 142.194C35.3571 138.28 48.7941 126.025 64.7441 114.017C81.8731 101.121 94.3081 94.1618 103.182 90.5058C94.4891 105.449 90.1631 121.771 92.1921 135.13C61.6861 156.807 35.6871 200.284 41.9511 246.682C43.0921 255.136 45.2241 262.078 47.9601 268.054C40.9601 262.993 35.3731 256.491 31.1141 248.434C11.2801 210.91 27.8331 152.858 31.1501 142.194ZM30.8061 301.581C28.3111 290.822 26.0951 281.251 29.0611 271.275C38.3021 281.173 50.2771 288.215 64.8521 292.291C64.9881 292.447 65.1241 292.604 65.2591 292.76C71.9231 300.425 78.8151 308.35 84.3081 320.28C87.6611 327.561 91.4071 334.484 95.4721 340.992C95.3711 341.169 95.2721 341.347 95.1841 341.534C92.9881 346.216 91.3051 352.488 90.9971 359.586C65.4761 356.004 41.8071 341.393 33.0231 335.086C35.8421 323.298 33.2871 312.281 30.8061 301.581ZM308.644 415.684C302.313 419.379 296.332 422.87 291.528 426.969C272.162 443.489 251.583 450.65 233.575 447.127C221.376 444.742 211.876 440.035 199.849 434.075C189.402 428.898 177.56 423.03 160.59 416.768C133.382 406.728 115.498 392.885 108.871 376.734C105.594 368.748 105.53 361.615 106.324 356.395C111.402 362.766 116.826 368.535 122.521 373.592C137.699 387.07 154.467 395.258 171.015 397.273C173.692 397.599 176.349 397.76 178.98 397.76C187.344 397.76 195.449 396.124 203.1 392.945C203.193 393.042 203.281 393.142 203.38 393.235C215.135 404.219 230.56 411.777 245.699 413.969C248.91 414.434 252.082 414.665 255.214 414.665C270.412 414.665 284.574 409.219 296.608 398.654C312.519 384.685 328.033 377.391 343.036 370.337C344.084 369.844 345.129 369.352 346.172 368.859C344.362 394.833 326.232 405.418 308.644 415.684ZM409.315 319.039C402.577 326.991 393.342 337.891 386.662 342.053C394.283 333.866 401.114 323.328 406.796 308.979C411.077 298.172 411.227 287.086 409.322 275.689C409.85 274.921 410.256 274.053 410.472 273.087C411.56 268.217 415.761 257.658 420.901 245.601C433.513 257.903 441.622 281.253 441.574 288.665C430.318 294.256 419.652 306.841 409.315 319.039Z" fill="#52BA63" fill-opacity="0.5"/>
</g>
<defs>
<clipPath id="clip0">
<rect width="463.003" height="463.003" fill="white"/>
</clipPath>
</defs>
</svg>
