<svg width="30" height="30" viewBox="0 0 30 30" fill="none" xmlns="http://www.w3.org/2000/svg">
<g clip-path="url(#clip0)">
<path d="M6.45726 11.7862H1.07115C0.479385 11.786 -0.000188283 11.3061 5.54545e-08 10.7144C6.28351e-05 10.4109 0.128887 10.1217 0.354328 9.91858L11.0687 0.275694C11.4615 -0.076939 12.0525 -0.0910645 12.4616 0.242484L24.2474 9.88544C24.7054 10.2601 24.773 10.9351 24.3983 11.3932C24.1953 11.6413 23.8919 11.7855 23.5714 11.7862H18.2324C18.5077 20.2505 22.126 25.5327 29.2682 27.9135C29.7052 28.0595 29.9998 28.4685 30 28.9292C30.0002 28.987 29.9955 29.0447 29.9861 29.1017C29.9015 29.62 29.4538 30.0007 28.9285 30.0007C16.3113 30.0006 7.04224 22.4052 6.45726 11.7862ZM16.0713 10.7147C16.0713 10.1229 16.551 9.64323 17.1427 9.64323H20.5713L11.8187 2.48284L3.86327 9.64329H7.49972C8.09148 9.64329 8.57118 10.123 8.57118 10.7148C8.57118 19.1363 14.3988 25.4385 23.2906 27.2964C18.4949 23.8473 16.0713 18.2941 16.0713 10.7147Z" fill="#52BA63"/>
</g>
<defs>
<clipPath id="clip0">
<rect width="30" height="30" fill="white" transform="matrix(0 1 1 0 0 0)"/>
</clipPath>
</defs>
</svg>
