<svg width="30" height="30" viewBox="0 0 30 30" fill="none" xmlns="http://www.w3.org/2000/svg">
<g clip-path="url(#clip0)">
<path d="M0.518703 13.995L7.85495 17.6512C8.1387 17.7912 8.4737 17.7812 8.74495 17.6225L15.275 13.8262L11.3225 17.3287C11.1212 17.5075 11.0062 17.7625 11.0062 18.0312V26.5625C11.0062 27.4625 12.155 27.8412 12.6937 27.1262L15.865 22.91L23.7075 27.3762C24.2575 27.6925 24.9625 27.375 25.09 26.7462L29.9812 2.37124C30.1275 1.63874 29.3987 1.04124 28.7212 1.31374L0.596203 12.2825C-0.158797 12.5775 -0.207547 13.6337 0.518703 13.995ZM27.8062 3.68374L23.5075 25.105L16.0762 20.8725C15.6712 20.6412 15.15 20.7437 14.8625 21.1237L12.8812 23.7575V18.4525L23.57 8.98249C24.4162 8.23374 23.4437 6.90249 22.4775 7.46999L8.23995 15.7475L3.24995 13.2612L27.8062 3.68374Z" fill="white"/>
</g>
<defs>
<clipPath id="clip0">
<rect width="30" height="30" fill="white"/>
</clipPath>
</defs>
</svg>
