<svg width="50" height="44" viewBox="0 0 50 44" fill="none" xmlns="http://www.w3.org/2000/svg">
<path d="M36.0209 21.5384C37.3461 21.5384 38.4241 20.5229 38.4241 19.2748C38.4241 18.8937 38.0962 18.585 37.6917 18.585C37.2872 18.585 36.9593 18.8937 36.9593 19.2748C36.9593 19.7622 36.5383 20.1587 36.0209 20.1587C35.5035 20.1587 35.0825 19.7621 35.0825 19.2748C35.0825 18.8937 34.7546 18.585 34.3501 18.585C33.9456 18.585 33.6177 18.8937 33.6177 19.2748C33.6176 20.5229 34.6957 21.5384 36.0209 21.5384Z" fill="white"/>
<path d="M39.8604 17.669C40.2648 17.669 40.5928 17.3602 40.5928 16.9791V16.2583C40.9544 16.216 41.2344 15.9257 41.2344 15.5736C41.2344 15.1926 40.9064 14.8838 40.502 14.8838H39.8604C39.4559 14.8838 39.1279 15.1926 39.1279 15.5736V16.9791C39.1279 17.3602 39.4559 17.669 39.8604 17.669Z" fill="white"/>
<path d="M31.4482 16.2583V16.9791C31.4482 17.3602 31.7762 17.669 32.1807 17.669C32.5852 17.669 32.9131 17.3602 32.9131 16.9791V15.5736C32.9131 15.1926 32.5852 14.8838 32.1807 14.8838H31.5391C31.1346 14.8838 30.8066 15.1926 30.8066 15.5736C30.8066 15.9256 31.0866 16.216 31.4482 16.2583V16.2583Z" fill="white"/>
<path d="M46.9673 17.1028C47.1752 16.6885 47.2921 16.226 47.2921 15.7381C47.2921 14.9262 46.9693 14.1843 46.4392 13.6188C46.5233 13.5065 46.5731 13.3698 46.5731 13.2218C46.5731 11.1843 46.6812 9.97592 46.0304 8.22333C45.8968 7.86368 45.479 7.67374 45.0972 7.79985C44.7153 7.92559 44.5141 8.31917 44.6476 8.67881C45.1795 10.111 45.1082 11.1045 45.1082 12.532C44.174 12.532 41.6573 12.532 40.5963 12.532C38.4771 12.532 36.753 10.9081 36.7529 8.91217C36.7529 8.53109 36.425 8.22232 36.0205 8.22232C35.616 8.22232 35.2881 8.53109 35.2881 8.91217C35.2881 10.9081 33.564 12.532 31.4447 12.532H28.2623H26.9328V11.2468C26.9328 6.95961 30.6359 3.47172 35.1877 3.47172C35.2431 3.47172 35.2881 3.51412 35.2881 3.56627C35.2881 3.94725 35.616 4.25603 36.0205 4.25603C36.425 4.25603 36.7529 3.94725 36.7529 3.56627C36.7529 3.51412 36.798 3.47172 36.8533 3.47172C39.2396 3.47181 41.5082 4.44422 43.0777 6.1396C43.3436 6.42686 43.8063 6.45648 44.1111 6.20629C44.416 5.95583 44.4477 5.52012 44.1818 5.23295C42.3341 3.23698 39.663 2.09219 36.8534 2.0921C36.5476 2.0921 36.2619 2.17516 36.0206 2.31856C35.7793 2.17516 35.4937 2.0921 35.1878 2.0921C29.8283 2.0921 25.4681 6.19893 25.4681 11.2469V13.2219C25.4681 13.3698 25.518 13.5066 25.6021 13.6189C25.3562 13.8811 25.1548 14.1811 25.0099 14.5087C24.9219 13.4914 24.377 12.598 23.5634 12.0136V9.38541C23.5634 4.21096 19.0939 0.0012979 13.6002 0.0012979C12.2361 0.0012979 12.7827 -0.0208696 10.896 0.118021C8.29346 0.30934 5.96445 1.62107 4.55459 3.66175L2.34893 2.99774C1.89189 2.85977 1.41738 3.16827 1.39434 3.62192C1.38389 3.82979 1.16289 8.4496 2.05723 11.6673C0.83877 12.243 0 13.4303 0 14.7995C0 16.576 1.41172 18.0478 3.23408 18.2721C3.69277 20.1257 4.77637 21.8083 6.32646 23.0562C6.73291 23.3833 7.1666 23.6745 7.6207 23.9304H6.07949C3.54717 23.9304 1.48701 25.8709 1.48701 28.256L1.39434 43.3101C1.39434 43.6912 1.72227 44 2.12676 44H3.34346C3.74795 44 4.07588 43.6912 4.07588 43.3101C4.07588 42.9291 3.74795 42.6203 3.34346 42.6203H2.85918L2.95186 28.256C2.95186 26.6316 4.35488 25.3101 6.07949 25.3101H8.21016C8.57412 27.3442 10.5272 28.8736 12.809 28.7348C14.8745 28.6095 16.511 27.1457 16.8398 25.3101H18.9708C20.6954 25.3101 22.0985 26.6316 22.0985 28.256L22.0059 42.6203H6.76152C6.35703 42.6203 6.0291 42.9291 6.0291 43.3101C6.0291 43.6912 6.35703 44 6.76152 44H22.7384C23.1429 44 23.4708 43.6912 23.4708 43.3101L23.5635 28.256C23.5635 27.6816 23.443 27.1334 23.2262 26.6314H24.4029C25.1397 26.6314 25.8425 26.4928 26.4848 26.2432C26.0329 26.9013 25.7694 27.6844 25.7694 28.5248L25.6768 43.3101C25.6768 43.6912 26.0047 44 26.4092 44H45.4961C45.9006 44 46.2285 43.6912 46.2285 43.3101L46.3212 28.5248C46.3212 27.6948 46.0642 26.9207 45.6226 26.2677C46.247 26.5015 46.9268 26.6314 47.6387 26.6314H49.2676C49.6721 26.6314 50 26.3227 50 25.9416V21.7166C50 19.7513 48.7907 17.9645 46.9673 17.1028ZM31.4449 13.9118C33.3916 13.9118 35.0969 12.9198 36.0207 11.4442C36.9446 12.9198 38.6498 13.9118 40.5965 13.9118H43.8882C44.9574 13.9118 45.8272 14.731 45.8272 15.7381C45.8272 16.2306 45.6184 16.6772 45.2809 17.006C44.8952 17.3813 44.3605 17.5835 43.8105 17.5625C43.44 17.5464 43.1181 17.7944 43.0571 18.1379C42.4999 21.2756 39.6181 23.741 36.0207 23.741C33.4791 23.741 31.105 22.4754 29.8275 20.3707C29.8156 20.3423 29.802 20.3144 29.786 20.2876C29.4878 19.7837 29.2616 19.2514 29.1106 18.6991C29.1076 18.6881 29.1052 18.6769 29.1022 18.6659C29.0606 18.5102 29.0211 18.3451 28.9843 18.1378C28.9234 17.7952 28.6001 17.5465 28.231 17.5624C27.1349 17.6043 26.2142 16.7714 26.2142 15.7379C26.2142 14.7308 27.0841 13.9116 28.1532 13.9116C28.1799 13.9116 28.2064 13.9127 28.2329 13.9136C28.2642 13.9148 28.2949 13.9141 28.3254 13.9116L31.4449 13.9118ZM36.0327 28.0226C34.6392 28.0226 33.5054 26.9547 33.5054 25.642V24.9998V24.7679C34.3366 25.0082 35.2047 25.1208 36.0206 25.1208C36.8633 25.1208 37.7408 25.0004 38.56 24.761V25.6421C38.56 26.9137 37.4959 27.9557 36.1625 28.0195C36.1195 28.0215 36.0763 28.0226 36.0327 28.0226ZM30.2434 24.3099C29.7413 24.3101 29.258 24.3898 28.8071 24.5342C29.2598 23.9578 29.5876 23.2899 29.754 22.5657C29.9688 22.7812 30.196 22.9872 30.4364 23.1807C30.9314 23.5792 31.4702 23.92 32.0405 24.2004V24.3099H30.2434ZM40.0249 24.1891C40.854 23.7784 41.6126 23.2426 42.2873 22.5658C42.4518 23.2813 42.7741 23.9418 43.2186 24.5135C42.3823 24.2591 41.946 24.3099 40.025 24.3099L40.0249 24.1891ZM2.83359 4.59204L4.66064 5.14199C4.99355 5.24197 5.35547 5.10685 5.52461 4.81858C6.64678 2.9065 8.69746 1.66338 11.0101 1.49349C12.8514 1.3581 12.2931 1.38091 13.6002 1.38091C18.2861 1.38091 22.0985 4.97164 22.0985 9.38531V11.3781C21.4585 11.2483 21.6609 11.3 11.616 11.3C10.8857 11.3 10.1862 11.1471 9.55596 10.8711C8.16934 10.2638 7.11777 9.06044 6.80977 7.57753C6.69209 7.01093 5.95166 6.8405 5.55615 7.23868C4.49961 8.30252 3.76094 9.56275 3.35986 10.8706C2.85625 8.7249 2.81553 5.98673 2.83359 4.59204ZM4.56221 17.4951C4.50293 17.1615 4.19639 16.9191 3.84014 16.9191C3.83027 16.9191 3.82031 16.9192 3.81035 16.9196C3.77979 16.9208 3.74922 16.9219 3.71836 16.9219C2.47578 16.9219 1.46484 15.9698 1.46484 14.7995C1.46484 13.6488 2.43867 12.7187 3.63652 12.6789C3.63945 12.6788 3.64248 12.6788 3.64541 12.6787C3.6999 12.6771 3.75439 12.6771 3.80859 12.6792L3.81211 12.6793L3.81885 12.6792C4.18418 12.6899 4.50176 12.444 4.56221 12.1038C4.72754 11.1727 5.07471 10.2869 5.58389 9.48392C5.65664 9.36922 5.73271 9.25617 5.81201 9.14497C6.82021 11.254 9.07441 12.6798 11.616 12.6798H21.4104C21.766 12.6952 22.1368 12.7963 22.4561 12.9754C22.4617 12.9786 22.4678 12.9807 22.4735 12.9838C23.1261 13.3555 23.5585 14.0288 23.5585 14.7994C23.5585 15.9697 22.5476 16.9218 21.305 16.9218C21.2741 16.9218 21.2435 16.9206 21.2129 16.9195C20.8444 16.9071 20.522 17.1522 20.461 17.495C19.7973 21.2335 16.3818 23.8252 12.5116 23.8252C8.61162 23.8253 5.22129 21.2069 4.56221 17.4951ZM12.3782 27.3612C10.945 27.2937 9.77647 26.2436 9.62979 24.9046C9.62871 24.8946 9.62813 24.8844 9.62715 24.8742C9.62422 24.8444 9.62178 24.8145 9.61992 24.7844C10.5845 25.0743 11.5902 25.2049 12.5118 25.2049C13.4508 25.2049 14.4646 25.0697 15.4315 24.7758C15.343 26.2782 13.9755 27.4364 12.3782 27.3612ZM18.9709 23.9304H17.4028C17.8569 23.6745 18.2906 23.3833 18.6971 23.0562C20.2471 21.8084 21.3308 20.1258 21.7894 18.2721C23.1508 18.1046 24.2828 17.2406 24.7684 16.0736C24.8088 16.4382 24.9144 16.7848 25.0739 17.1028C23.2505 17.9645 22.0412 19.7512 22.0412 21.7166V25.0425C21.2271 24.3517 20.1504 23.9304 18.9709 23.9304ZM23.5062 25.2517V21.7166C23.5062 20.1815 24.513 18.7943 25.9986 18.2199C26.4852 18.5941 27.071 18.8292 27.6567 18.9102C27.8259 19.5757 28.0922 20.2257 28.4138 20.7987V21.4736C28.4138 23.5568 26.6145 25.2516 24.4027 25.2516L23.5062 25.2517ZM44.7636 42.6203H27.1415L27.2342 28.5248C27.2342 26.9615 28.5846 25.6897 30.2443 25.6897H32.0409C32.0679 27.7267 33.836 29.4023 36.0327 29.4023C38.2043 29.4023 39.9972 27.7525 40.0246 25.6897H41.8461C43.5059 25.6897 44.8562 26.9615 44.8562 28.5248L44.7636 42.6203ZM48.5352 25.2517H47.6385C45.4268 25.2517 43.6274 23.5569 43.6274 21.4737V20.7988C43.9538 20.2173 44.2175 19.5674 44.3845 18.9103C44.9348 18.8343 45.4897 18.6236 45.9723 18.2705C45.9956 18.2535 46.0197 18.2377 46.0426 18.2201C47.5283 18.7944 48.5352 20.1815 48.5352 21.7166V25.2517Z" fill="white"/>
<path d="M12.5116 21.2129C13.9452 21.2129 15.1115 20.1143 15.1115 18.7641C15.1115 18.383 14.7836 18.0742 14.3791 18.0742C13.9746 18.0742 13.6467 18.383 13.6467 18.7641C13.6467 19.3536 13.1375 19.8332 12.5116 19.8332C11.8857 19.8332 11.3765 19.3536 11.3765 18.7641C11.3765 18.383 11.0485 18.0742 10.644 18.0742C10.2396 18.0742 9.91162 18.383 9.91162 18.7641C9.91172 20.1143 11.078 21.2129 12.5116 21.2129Z" fill="white"/>
<path d="M8.21875 13.9609C7.81426 13.9609 7.48633 14.2697 7.48633 14.6508V16.176C7.48633 16.5571 7.81426 16.8659 8.21875 16.8659C8.62324 16.8659 8.95117 16.5571 8.95117 16.176V14.6508C8.95117 14.2698 8.62324 13.9609 8.21875 13.9609Z" fill="white"/>
<path d="M16.8042 16.8659C17.2087 16.8659 17.5366 16.5571 17.5366 16.176V14.6508C17.5366 14.2697 17.2087 13.9609 16.8042 13.9609C16.3997 13.9609 16.0718 14.2697 16.0718 14.6508V16.176C16.0718 16.5571 16.3997 16.8659 16.8042 16.8659Z" fill="white"/>
</svg>
